<svg width="73" height="48" viewBox="0 0 73 48" fill="none" xmlns="http://www.w3.org/2000/svg">
<path d="M59.0531 2.80931C52.8294 -0.14494 46.0463 -0.11275 40.2179 2.25136L40.2073 2.25494L0.36377 23.6857L40.2358 45.8676C52.7652 50.9392 67.0902 44.3726 71.3154 31.2395C74.9029 20.0913 69.6018 7.81293 59.0531 2.80931ZM65.1415 25.9676C64.1761 25.9676 63.3923 25.1807 63.3923 24.2115C63.3923 23.5749 63.3531 22.949 63.2676 22.3302C62.4269 15.7815 57.2469 10.5812 50.7239 9.73712C50.1111 9.65129 49.4841 9.61194 48.85 9.61194C47.8845 9.61194 47.1008 8.8251 47.1008 7.85584C47.1008 6.88659 47.8845 6.09975 48.85 6.09975C58.7966 6.09975 66.8872 14.2221 66.8872 24.2079C66.8907 25.1807 66.107 25.9676 65.1415 25.9676Z" fill="#FF86A0"/>
</svg>
